<svg xmlns="http://www.w3.org/2000/svg" xmlns:xlink="http://www.w3.org/1999/xlink" viewBox="0,0,256,256" width="144px" height="144px" fill-rule="nonzero"><g fill="none" fill-rule="nonzero" stroke="none" stroke-width="1" stroke-linecap="butt" stroke-linejoin="miter" stroke-miterlimit="10" stroke-dasharray="" stroke-dashoffset="0" font-family="none" font-weight="none" font-size="none" text-anchor="none" style="mix-blend-mode: normal"><g transform="scale(5.33333,5.33333)"><path d="M25.165,30.526c0,0 8.467,-8.453 22.835,-9.807c0,0 -15.908,5.317 -18.73,16.863l-3.977,-0.898z" fill="#dff2ea"></path><path d="M48,20.719c-11.033,1.04 -18.568,6.254 -21.48,8.623l-0.27,3.783l-0.046,0.719c-0.085,1.316 0.474,2.546 1.429,3.367l1.186,0.268c-0.788,-2.551 -2.957,-13.855 19.181,-16.76z" fill="#133844"></path><path d="M32,40.625c0,0 0.013,-0.004 0.036,-0.01c0.911,-0.229 1.776,0.442 1.897,1.374c0.057,0.439 0.342,1.012 1.192,1.636c0,0 -2.125,0.625 -3.125,-3z" fill="#dff2ea"></path><path d="M0.021,31.167c0,0 4.875,-6.927 15.138,-3.207c0,0 -4.618,0.385 -4.875,2.566c0,0 1.026,1.924 5.003,2.566c0,0 2.951,-3.207 2.951,-7.954l-0.077,-0.884c-0.083,-0.96 -0.37,-1.88 -0.644,-2.803c-0.18,-0.606 -0.012,-1.517 1.747,-2.47c0,0 14.98,-14.648 27.424,-17.855c0,0 -17.417,12.595 -19.855,21.062c0,0 -0.898,9.493 1.411,14.625c0,0 2.309,2.053 16.677,-3.079c0,0 -7.921,5.267 -15.523,4.362l-4.49,-0.513c0,0 -7.441,2.566 -9.621,-0.641c0,0 -5.773,-1.924 -6.543,-4.105c0,0 -5.901,-0.128 -7.954,1.924c0,0 2.309,-2.566 5.773,-3.335z" fill="#4db78c"></path><path d="M23.626,37.068l7.569,3.977c0,0 1.668,4.233 5.131,2.566c0,0 -2.326,0.389 -3.326,-1.611c-0.894,-1.789 -3.73,-4.419 -3.73,-4.419z" fill="#4db78c"></path><path d="M23,37c-5,1 -7,-2 -7,-2c-4,0 -6,-3 -6,-3c-0.356,0.57 -0.698,0.77 -1.253,0.84c0.466,1.307 2.727,2.522 4.462,3.284c1.031,0.453 1.995,1.033 2.936,1.653c2.573,1.694 7.744,0.134 8.622,-0.149z" fill="#dff2ea"></path><path d="M0.021,31.167l6.543,0.257l-3.564,-1.424c0,0 5.317,-3.08 12.159,-2.04c-10.263,-3.72 -15.138,3.207 -15.138,3.207z" fill="#afdfcb"></path><circle cx="7.5" cy="29.5" r="0.5" fill="#212121"></circle><path d="M17.375,33.625c0,0 1.625,-2.875 2.125,-6.75l0.868,4.125l-0.368,3z" fill="#00bdb6"></path><path d="M22,34l-2,-9l-0.625,-3.875c0,0 10.625,-12.125 27.313,-20l-13.821,15.469c-3.611,4.114 -5.74,9.376 -5.741,14.85c0,1.188 0.086,2.216 0.277,2.918c0.21,0.772 0.483,1.597 0.841,2.45c0,0 -4.244,-1.812 -6.244,-2.812z" fill="#00bdb6"></path><path d="M25,28c0,0 -1,-7 12,-18l-10.859,8.079c-1.326,1.189 -1.919,2.994 -1.557,4.738z" fill="#d1f9f1"></path><path d="M11.565,35.321c0.265,0.144 0.531,0.282 0.796,0.411l0.514,-1.982z" fill="#133844"></path><path d="M9.741,34.111c0.199,0.17 0.419,0.336 0.653,0.496l0.481,-1.857z" fill="#133844"></path><path d="M15.592,37.29c0.217,0.23 0.454,0.436 0.729,0.595l0.553,-2.135z" fill="#133844"></path><path d="M13.593,36.289c0.292,0.123 0.565,0.233 0.799,0.324l0.483,-1.863z" fill="#133844"></path><path d="M20.411,38.507c0.353,-0.028 0.7,-0.067 1.039,-0.116l0.425,-1.641z" fill="#133844"></path><path d="M17.544,38.347c0.283,0.068 0.575,0.122 0.877,0.154l0.454,-1.75z" fill="#133844"></path><path d="M10.368,30.656c-0.056,-0.08 -0.084,-0.13 -0.084,-0.13c0.256,-2.181 4.875,-2.566 4.875,-2.566c0,0 -7.732,0.039 -4.791,2.696z" fill="#dff2ea"></path><path d="M29.75,38.125l1.125,1.125c0,0 9.967,-1.784 14.046,-5.517c0,0 -4.921,3.267 -15.171,4.392z" fill="#dff2ea"></path></g></g></svg>